<svg xmlns="http://www.w3.org/2000/svg" xmlns:xlink="http://www.w3.org/1999/xlink" viewBox="0,0,256,256" width="144px" height="144px"><defs><clipPath id="clip-1"><path d="M5,6h39v35h-39z" id="JoSQiOFj9s5DICrTBY2beb" fill="none"></path></clipPath><clipPath id="clip-2"><path d="M5,6h39v35h-39z" id="JoSQiOFj9s5DICrTBY2beb" fill="none"></path></clipPath><clipPath id="clip-3"><path d="M5,6h39v35h-39z" id="JoSQiOFj9s5DICrTBY2beb" fill="none"></path></clipPath><clipPath id="clip-4"><path d="M5,6h39v35h-39z" id="JoSQiOFj9s5DICrTBY2beb" fill="none"></path></clipPath><clipPath id="clip-5"><path d="M5,6h39v35h-39z" id="JoSQiOFj9s5DICrTBY2beb" fill="none"></path></clipPath><clipPath id="clip-6"><path d="M5,6h39v35h-39z" id="JoSQiOFj9s5DICrTBY2beb" fill="none"></path></clipPath><clipPath id="clip-7"><path d="M5,6h39v35h-39z" id="JoSQiOFj9s5DICrTBY2beb" fill="none"></path></clipPath><clipPath id="clip-8"><path d="M5,6h39v35h-39z" id="JoSQiOFj9s5DICrTBY2beb" fill="none"></path></clipPath></defs><g fill="none" fill-rule="nonzero" stroke="none" stroke-width="1" stroke-linecap="butt" stroke-linejoin="miter" stroke-miterlimit="10" stroke-dasharray="" stroke-dashoffset="0" font-family="none" font-weight="none" font-size="none" text-anchor="none" style="mix-blend-mode: normal"><g transform="scale(5.33333,5.33333)"><g clip-path="url(#clip-1)"><path d="M40.056,40.98h-31.112c-2.178,0 -3.944,-1.766 -3.944,-3.944v-27.072c0,-2.178 1.766,-3.944 3.944,-3.944h31.113c2.177,0 3.943,1.766 3.943,3.944v27.073c0,2.177 -1.766,3.943 -3.944,3.943z" fill="#ffffff"></path></g><g clip-path="url(#clip-2)"><path d="M38.992,6.04h-12.672c-0.036,0 -0.069,0.023 -0.081,0.056c-1.01,2.713 -1.813,5.523 -2.399,8.354c-0.554,2.78 -0.903,5.62 -1.026,8.46c-0.002,0.049 0.037,0.09 0.087,0.09h3.819c0.4,0 0.79,0.17 1.06,0.47c0.27,0.3 0.4,0.7 0.36,1.1c-0.277,2.908 -0.28,5.855 0.02,8.764c0.005,0.051 0.052,0.088 0.102,0.078c2.307,-0.44 5.265,-1.464 8.028,-3.783c0.43,-0.35 1.06,-0.29 1.41,0.13c0.36,0.42 0.3,1.05 -0.12,1.41c-3.138,2.623 -6.501,3.757 -9.08,4.235c-0.045,0.008 -0.074,0.051 -0.067,0.096c0.276,1.831 0.676,3.652 1.18,5.435c0.01,0.039 0.044,0.065 0.083,0.065h9.222c2.254,0 4.082,-1.828 4.082,-4.083v-26.869c0,-2.214 -1.794,-4.008 -4.008,-4.008zM34.15,17.95c0,0.55 -0.45,1 -1,1c-0.55,0 -1,-0.45 -1,-1v-3.25c0,-0.55 0.45,-1 1,-1c0.55,0 1,0.45 1,1z" fill="#ffffff"></path></g><g clip-path="url(#clip-3)"><path d="M32.15,17.95v-3.25c0,-0.55 0.45,-1 1,-1c0.55,0 1,0.45 1,1v3.25c0,0.55 -0.45,1 -1,1c-0.55,0 -1,-0.45 -1,-1z" fill="#f90000"></path></g><g clip-path="url(#clip-4)"><path d="M37.58,31.17c-3.17,2.65 -6.57,3.78 -9.16,4.25c0.28,1.88 0.69,3.75 1.21,5.58h-20.627c-2.211,0 -4.003,-1.792 -4.003,-4.003v-26.944c0,-2.216 1.797,-4.013 4.013,-4.013h17.247c-1.02,2.73 -1.83,5.56 -2.42,8.41c-0.56,2.81 -0.91,5.68 -1.03,8.55h3.91c0.4,0 0.79,0.17 1.06,0.47c0.27,0.3 0.4,0.7 0.36,1.1c-0.28,2.94 -0.28,5.92 0.03,8.86c2.32,-0.43 5.32,-1.45 8.12,-3.8c0.43,-0.35 1.06,-0.29 1.41,0.13c0.36,0.42 0.3,1.05 -0.12,1.41z" fill="#f90000"></path></g><g clip-path="url(#clip-5)"><path d="M29.63,41c-0.52,-1.83 -0.93,-3.7 -1.21,-5.58c-0.09,-0.59 -0.17,-1.19 -0.23,-1.78c-0.01,-0.07 -0.01,-0.14 -0.02,-0.21c-0.31,-2.94 -0.31,-5.92 -0.03,-8.86c0.04,-0.4 -0.09,-0.8 -0.36,-1.1c-0.27,-0.3 -0.66,-0.47 -1.06,-0.47h-3.91c0.12,-2.87 0.47,-5.74 1.03,-8.55c0.59,-2.85 1.4,-5.68 2.42,-8.41c0.08,-0.21 0.16,-0.41 0.24,-0.62l-1.86,-0.73c-0.17,0.45 -0.34,0.9 -0.5,1.35c-0.95,2.61 -1.71,5.3 -2.26,8.02c-0.63,3.11 -0.99,6.29 -1.09,9.47c-0.01,0.39 0.13,0.76 0.41,1.04c0.26,0.27 0.64,0.43 1.03,0.43h3.86c-0.24,2.89 -0.21,5.81 0.09,8.69c0.01,0.05 0.01,0.11 0.02,0.16c0.07,0.61 0.14,1.22 0.24,1.82c0.26,1.8 0.64,3.58 1.11,5.33c0.26,0.95 0.54,1.88 0.86,2.81l1.9,-0.65c-0.25,-0.71 -0.47,-1.44 -0.68,-2.16z" fill="#d10000"></path></g><g clip-path="url(#clip-6)"><path d="M37.58,31.17c-3.17,2.65 -6.57,3.78 -9.16,4.25c-0.73,0.13 -1.4,0.21 -1.98,0.25c-0.56,0.05 -1.04,0.06 -1.41,0.06c-6.41,0 -10.91,-3.19 -12.55,-4.56c-0.43,-0.36 -0.48,-0.99 -0.13,-1.41c0.36,-0.42 0.99,-0.48 1.41,-0.13c1.47,1.24 5.51,4.1 11.27,4.1c0.31,0 0.7,-0.01 1.15,-0.04c0.57,-0.04 1.24,-0.12 1.99,-0.26c2.32,-0.43 5.32,-1.45 8.12,-3.8c0.43,-0.35 1.06,-0.29 1.41,0.13c0.36,0.42 0.3,1.05 -0.12,1.41z" fill="#37474f"></path></g><g clip-path="url(#clip-7)"><path d="M15.826,18.95c-0.553,0 -1,-0.448 -1,-1v-3.248c0,-0.552 0.447,-1 1,-1c0.553,0 1,0.448 1,1v3.248c0,0.552 -0.447,1 -1,1z" fill="#37474f"></path></g><g clip-path="url(#clip-8)"><path d="M34.15,14.7v3.25c0,0.55 -0.45,1 -1,1c-0.55,0 -1,-0.45 -1,-1v-3.25c0,-0.55 0.45,-1 1,-1c0.55,0 1,0.45 1,1z" fill="#37474f"></path></g></g></g></svg>