<svg xmlns="http://www.w3.org/2000/svg" xmlns:xlink="http://www.w3.org/1999/xlink" viewBox="0,0,256,256" width="144px" height="144px"><g fill="none" fill-rule="nonzero" stroke="none" stroke-width="1" stroke-linecap="butt" stroke-linejoin="miter" stroke-miterlimit="10" stroke-dasharray="" stroke-dashoffset="0" font-family="none" font-weight="none" font-size="none" text-anchor="none" style="mix-blend-mode: normal"><g transform="scale(5.33333,5.33333)"><path d="M4,23c0,-11.046 8.954,-20 20,-20c11.046,0 20,8.954 20,20l-20,2z" fill="#c80000"></path><path d="M44,23c0,11.046 -8.954,20 -20,20c-11.046,0 -20,-8.954 -20,-20z" fill="#e60000"></path><path d="M39.29,42.34v3.16c0,0.19 -0.1,0.35 -0.25,0.43c-0.14,0.09 -0.33,0.1 -0.5,0l-2.72,-1.59l-4.68,-8.15l-2,-3.47l-3.75,-6.52l2.93,-2.93l3.99,6.94l2.07,3.6z" fill="#ffffff"></path><path d="M31.231,28.335c-0.814,1.101 -1.869,2.011 -3.092,2.648l3.991,6.941c1.185,-0.648 2.272,-1.446 3.265,-2.346z" fill="#c3c3c3"></path><path d="M39,23c0,4.24 -1.77,8.08 -4.62,10.81c-0.96,0.93 -2.05,1.73 -3.24,2.38c-2.12,1.15 -4.55,1.81 -7.14,1.81c-2.53,0 -4.96,-0.62 -7.14,-1.81l-4.68,8.15l-2.72,1.59c-0.17,0.1 -0.36,0.09 -0.5,0c-0.15,-0.08 -0.25,-0.24 -0.25,-0.43v-3.16l10.97,-19.07l2.93,2.93l-3.75,6.53c1.57,0.83 3.32,1.27 5.14,1.27c1.86,0 3.61,-0.46 5.14,-1.28c1.21,-0.63 2.28,-1.49 3.17,-2.51c1.68,-1.94 2.69,-4.45 2.69,-7.21z" fill="#ffffff"></path><path d="M28.5,13h-2.5v-3h-4v3h-2.5c-0.828,0 -1.5,0.672 -1.5,1.5v8.5l4.932,4.932c0.59,0.59 1.546,0.59 2.135,0l4.933,-4.932v-8.5c0,-0.828 -0.672,-1.5 -1.5,-1.5zM24,22c-1.381,0 -2.5,-1.119 -2.5,-2.5c0,-1.381 1.119,-2.5 2.5,-2.5c1.381,0 2.5,1.119 2.5,2.5c0,1.381 -1.119,2.5 -2.5,2.5z" fill="#b9b9b9"></path></g></g></svg>